<svg width="34" height="34" viewBox="0 0 34 34" fill="none" xmlns="http://www.w3.org/2000/svg">
<g clip-path="url(#clip0_157_14)">
<path d="M33.5455 16.7727C33.5455 7.5094 26.0361 0 16.7727 0C7.5094 0 0 7.5094 0 16.7727C0 25.1443 6.13351 32.0834 14.152 33.3417V21.6211H9.89329V16.7727H14.152V13.0775C14.152 8.87382 16.6561 6.55185 20.4873 6.55185C22.3218 6.55185 24.2418 6.87944 24.2418 6.87944V11.0071H22.1269C20.0434 11.0071 19.3935 12.3001 19.3935 13.6278V16.7727H24.0453L23.3016 21.6211H19.3935V33.3417C27.4119 32.0834 33.5455 25.1443 33.5455 16.7727Z" fill="white"/>
</g>
<defs>
<clipPath id="clip0_157_14">
<rect width="33.5455" height="33.5455" fill="white"/>
</clipPath>
</defs>
</svg>
