<svg width="35" height="34" viewBox="0 0 35 34" fill="none" xmlns="http://www.w3.org/2000/svg">
<g clip-path="url(#clip0_157_15)">
<path d="M17.5 3.0204C21.9815 3.0204 22.5122 3.04006 24.2746 3.11868C25.9126 3.19075 26.7971 3.46593 27.3868 3.69524C28.1664 3.99663 28.7299 4.36353 29.313 4.94664C29.9027 5.53631 30.263 6.09322 30.5644 6.87289C30.7937 7.46255 31.0689 8.3536 31.141 9.98501C31.2196 11.754 31.2392 12.2847 31.2392 16.7596C31.2392 21.2411 31.2196 21.7718 31.141 23.5342C31.0689 25.1722 30.7937 26.0567 30.5644 26.6464C30.263 27.426 29.8961 27.9895 29.313 28.5726C28.7233 29.1623 28.1664 29.5226 27.3868 29.824C26.7971 30.0533 25.906 30.3285 24.2746 30.4006C22.5056 30.4792 21.9749 30.4988 17.5 30.4988C13.0186 30.4988 12.4879 30.4792 10.7254 30.4006C9.08745 30.3285 8.20295 30.0533 7.61329 29.824C6.83362 29.5226 6.27016 29.1557 5.68704 28.5726C5.09738 27.9829 4.73703 27.426 4.43564 26.6464C4.20633 26.0567 3.93115 25.1656 3.85908 23.5342C3.78046 21.7652 3.7608 21.2345 3.7608 16.7596C3.7608 12.2782 3.78046 11.7475 3.85908 9.98501C3.93115 8.34705 4.20633 7.46255 4.43564 6.87289C4.73703 6.09322 5.10393 5.52976 5.68704 4.94664C6.27671 4.35698 6.83362 3.99663 7.61329 3.69524C8.20295 3.46593 9.094 3.19075 10.7254 3.11868C12.4879 3.04006 13.0186 3.0204 17.5 3.0204ZM17.5 0C12.9465 0 12.3765 0.0196555 10.5878 0.0982777C8.80572 0.1769 7.58053 0.465181 6.51913 0.877947C5.41187 1.31037 4.47495 1.88038 3.54459 2.81729C2.60768 3.74766 2.03766 4.68457 1.60524 5.78528C1.19248 6.85323 0.904195 8.07187 0.825573 9.85398C0.74695 11.6492 0.727295 12.2192 0.727295 16.7727C0.727295 21.3263 0.74695 21.8963 0.825573 23.6849C0.904195 25.467 1.19248 26.6922 1.60524 27.7536C2.03766 28.8609 2.60768 29.7978 3.54459 30.7282C4.47495 31.6585 5.41187 32.2351 6.51258 32.661C7.58053 33.0737 8.79917 33.362 10.5813 33.4406C12.3699 33.5192 12.9399 33.5389 17.4935 33.5389C22.047 33.5389 22.617 33.5192 24.4057 33.4406C26.1878 33.362 27.413 33.0737 28.4744 32.661C29.5751 32.2351 30.512 31.6585 31.4424 30.7282C32.3727 29.7978 32.9493 28.8609 33.3751 27.7602C33.7879 26.6922 34.0762 25.4736 34.1548 23.6915C34.2334 21.9028 34.2531 21.3328 34.2531 16.7793C34.2531 12.2257 34.2334 11.6557 34.1548 9.86708C34.0762 8.08498 33.7879 6.85978 33.3751 5.79838C32.9624 4.68457 32.3924 3.74766 31.4555 2.81729C30.5251 1.88693 29.5882 1.31037 28.4875 0.884499C27.4195 0.471733 26.2009 0.183452 24.4188 0.10483C22.6236 0.0196555 22.0536 0 17.5 0Z" fill="white"/>
<path d="M17.5 8.15723C12.7433 8.15723 8.88428 12.0163 8.88428 16.7729C8.88428 21.5295 12.7433 25.3886 17.5 25.3886C22.2566 25.3886 26.1156 21.5295 26.1156 16.7729C26.1156 12.0163 22.2566 8.15723 17.5 8.15723ZM17.5 22.3616C14.414 22.3616 11.9112 19.8588 11.9112 16.7729C11.9112 13.687 14.414 11.1842 17.5 11.1842C20.5859 11.1842 23.0887 13.687 23.0887 16.7729C23.0887 19.8588 20.5859 22.3616 17.5 22.3616Z" fill="white"/>
<path d="M28.4679 7.81611C28.4679 8.92992 27.5637 9.82753 26.4565 9.82753C25.3427 9.82753 24.4451 8.92337 24.4451 7.81611C24.4451 6.70229 25.3492 5.80469 26.4565 5.80469C27.5637 5.80469 28.4679 6.70884 28.4679 7.81611Z" fill="white"/>
</g>
<defs>
<clipPath id="clip0_157_15">
<rect width="33.5455" height="33.5455" fill="white" transform="translate(0.727295)"/>
</clipPath>
</defs>
</svg>
