<svg width="34" height="34" viewBox="0 0 34 34" fill="none" xmlns="http://www.w3.org/2000/svg">
<g clip-path="url(#clip0_157_16)">
<path d="M31.5169 0H2.93119C1.56185 0 0.45459 1.08105 0.45459 2.41763V31.1213C0.45459 32.4579 1.56185 33.5455 2.93119 33.5455H31.5169C32.8862 33.5455 34 32.4579 34 31.1278V2.41763C34 1.08105 32.8862 0 31.5169 0ZM10.4068 28.5857H5.42744V12.573H10.4068V28.5857ZM7.91714 10.3912C6.31849 10.3912 5.02778 9.10052 5.02778 7.50842C5.02778 5.91632 6.31849 4.6256 7.91714 4.6256C9.50924 4.6256 10.8 5.91632 10.8 7.50842C10.8 9.09396 9.50924 10.3912 7.91714 10.3912ZM29.0403 28.5857H24.0674V20.8021C24.0674 18.9479 24.0347 16.5565 21.4795 16.5565C18.8915 16.5565 18.4984 18.581 18.4984 20.6711V28.5857H13.5321V12.573H18.3018V14.7613H18.3673C19.0291 13.5034 20.6539 12.1733 23.0716 12.1733C28.1099 12.1733 29.0403 15.4886 29.0403 19.7997V28.5857V28.5857Z" fill="white"/>
</g>
<defs>
<clipPath id="clip0_157_16">
<rect width="33.5455" height="33.5455" fill="white" transform="translate(0.45459)"/>
</clipPath>
</defs>
</svg>
