<svg width="84" height="84" viewBox="0 0 84 84" fill="none" xmlns="http://www.w3.org/2000/svg">
<path fill-rule="evenodd" clip-rule="evenodd" d="M2.40161 70.2844C-0.722412 73.4094 -0.722412 78.4739 2.40161 81.5989C5.52612 84.7229 10.5911 84.7229 13.7156 81.5989L42.0002 53.3137L70.2839 81.5979C73.408 84.7229 78.4734 84.7229 81.5974 81.5979C84.7219 78.4739 84.7219 73.4084 81.5974 70.2844L53.3137 42.0002L81.5979 13.7161C84.7219 10.592 84.7219 5.52661 81.5979 2.40259C78.4734 -0.721436 73.408 -0.721436 70.2839 2.40259L41.9998 30.6868L13.7151 2.40259C10.5911 -0.721436 5.52563 -0.721436 2.40161 2.40259C-0.722412 5.52661 -0.722412 10.592 2.40161 13.7161L30.6858 42.0002L2.40161 70.2844Z" fill="#2DC3CA"/>
</svg>
